# written by convert_mb_to_amc()
:FULLY-SPECIFIED
:DEGREES
63
upperback 1.698106 -4.203448 1.005170
rfoot -10.505460 -22.155540
lradius 27.961105
lthumb 26.543722 65.599129
rradius 9.151609
lwrist 15.464533
rhand -18.343409 -371.940338
rhumerus -79.578209 2.670685 -56.089569
lowerneck -6.943908 2.896722 5.197415
lhand 0.995681 37.439098
ltibia 55.960609
head 0.294023 1.673437 -1.485270
rwrist 17.529419
lfingers 7.125020
rtoes -2.742426
lowerback 7.707682 -3.339316 2.443063
rfingers 7.125020
lclavicle -0.000000 0.000000
upperneck -3.241208 3.478639 -2.227429
rfemur -48.396988 -3.379419 15.699069
thorax -2.652930 -2.101245 0.085709
rclavicle -0.000000 0.000000
rtibia 76.756775
lfoot -18.810862 16.241972
lhumerus 22.158531 -27.276911 30.152489
rthumb 7.938911 -401.771271
root -7.022097 18.100014 9.238163 379.126648 0.933885 -363.822906
ltoes 14.309393
lfemur -53.953613 -4.691743 -21.679886
64
upperback -2.741034 10.091809 -6.299890
rfoot -25.897356 -16.256096
lradius 13.047616
lthumb 22.124132 42.131863
rradius 55.546227
lwrist -14.103262
rhand -28.550825 -335.563477
rhumerus 82.628120 25.581045 -46.700626
lowerneck -4.923645 7.055935 3.437332
lhand -3.614428 13.380931
ltibia 54.125118
head 4.399404 4.502688 4.983922
rwrist -18.989437
lfingers 7.125020
rtoes -22.161097
lowerback -0.323147 7.740901 -0.823868
rfingers 7.125020
lclavicle -0.000000 0.000000
upperneck 13.549915 6.983237 16.752365
rfemur -0.868785 -29.866751 20.458828
thorax -1.652698 4.973383 -6.101697
rclavicle -0.000000 0.000000
rtibia 46.518608
lfoot -4.361965 1.097955
lhumerus -46.902538 36.626160 44.323658
rthumb -1.917890 -365.533264
root -7.069993 17.094881 4.092266 395.731293 -54.599236 -399.144928
ltoes -7.688555
lfemur -39.158878 17.611250 21.968121
65
upperback -2.432036 2.720194 8.187088
rfoot -20.561190 0.381826
lradius 22.898609
lthumb -11.443469 34.194599
rradius 36.252438
lwrist 15.849064
rhand -51.816536 -383.327454
rhumerus -39.709377 -58.655647 22.553148
lowerneck -8.346828 -7.314136 -2.613874
lhand -38.419098 4.524018
ltibia 44.639595
head 1.813577 -4.695270 2.021032
rwrist -65.532280
lfingers 7.125020
rtoes -19.007376
lowerback 4.435180 1.566022 10.694080
rfingers 7.125020
lclavicle 0.000000 -0.000000
upperneck -0.300275 -9.676213 6.259590
rfemur -18.948738 -19.477205 -13.998366
thorax -4.968571 0.953415 2.422410
rclavicle 0.000000 -0.000000
rtibia 55.839733
lfoot -12.873493 15.751560
lhumerus -26.498510 77.393745 -31.564301
rthumb -24.331560 -411.802795
root -6.572833 17.250925 4.429604 588.423889 -78.073692 -592.532166
ltoes -8.500720
lfemur -10.714656 20.985065 -4.742211
66
upperback 6.014921 -4.295353 7.082867
rfoot -8.858387 -3.957430
lradius 29.039213
lthumb 5.546462 17.314211
rradius 30.522528
lwrist 2.427901
rhand 6.445236 -386.925812
rhumerus -54.300011 12.366138 -96.144249
lowerneck -8.505570 2.184761 7.807195
lhand -20.819723 -12.540956
ltibia 52.927864
head 2.915113 1.112082 -2.888772
rwrist -1.397194
lfingers 7.125020
rtoes -19.359304
lowerback 7.465770 -3.083479 8.072755
rfingers 7.125020
lclavicle 0.000000 -0.000000
upperneck 3.714164 2.330916 -4.830921
rfemur -68.135040 -24.550354 -10.928413
thorax 2.123795 -2.247676 3.109370
rclavicle 0.000000 -0.000000
rtibia 58.541634
lfoot 1.786180 29.026903
lhumerus 80.728989 -29.122242 25.702377
rthumb 31.746962 -413.851379
root -4.816184 16.778938 5.480096 607.263611 -65.831528 -578.680542
ltoes 11.297720
lfemur -69.766541 38.063850 -37.792477
67
upperback 6.726727 -6.521898 8.252031
rfoot -0.255529 1.872211
lradius 13.757161
lthumb -10.263213 53.468761
rradius 25.098944
lwrist -11.718470
rhand 7.914343 -402.405884
rhumerus -56.673409 16.974884 -86.970116
lowerneck -12.843678 3.715653 7.296059
lhand -37.195465 23.731653
ltibia 58.053802
head 8.468679 2.183669 -4.462628
rwrist 15.008334
lfingers 7.125020
rtoes -33.893169
lowerback 8.882706 -5.269568 7.846257
rfingers 7.125020
lclavicle 0.000000 -0.000000
upperneck 18.613140 5.912046 -11.565704
rfemur -69.816643 1.374820 3.469573
thorax 2.256634 -3.185508 4.742790
rclavicle 0.000000 -0.000000
rtibia 85.979370
lfoot -14.230250 5.962747
lhumerus 23.722345 -45.816055 23.817961
rthumb 33.145496 -429.374420
root -6.954083 17.192867 10.230717 734.368530 0.655749 -722.860718
ltoes 23.513840
lfemur -55.256615 12.745277 -47.375656
68
upperback 1.681025 -1.009424 4.782561
rfoot -5.056644 -4.229831
lradius 13.498266
lthumb -12.842212 68.781563
rradius 28.585585
lwrist -46.724461
rhand -51.017807 -302.863861
rhumerus -62.618122 5.123898 -36.808762
lowerneck -8.852279 11.792880 16.701504
lhand -39.869858 39.198513
ltibia 89.941147
head 6.229247 7.378337 -6.793529
rwrist -120.494659
lfingers 7.125020
rtoes -49.842987
lowerback 4.801546 -1.670685 15.550270
rfingers 7.125020
lclavicle 0.000000 0.000000
upperneck 6.495014 15.763747 -17.820480
rfemur -42.602943 -2.133859 6.921362
thorax -1.144940 -0.319923 -3.574983
rclavicle 0.000000 0.000000
rtibia 34.251110
lfoot 2.511636 -3.616776
lhumerus -2.831436 6.657370 38.554043
rthumb -23.565018 -331.434021
root -4.616216 17.516882 12.911354 559.768005 48.829330 -892.215576
ltoes 1.911668
lfemur -43.337032 10.394939 -18.233015
69
upperback -0.220469 -1.492800 0.786153
rfoot -28.150953 -7.789052
lradius 19.679144
lthumb 3.443847 70.285255
rradius 40.968170
lwrist 0.742992
rhand -41.724648 -374.276123
rhumerus -61.479706 12.905271 -86.551178
lowerneck -13.408812 0.048381 6.507285
lhand -22.999229 40.333458
ltibia 70.656929
head 3.591802 -0.517854 -1.652302
rwrist -3.845970
lfingers 7.125020
rtoes -1.634917
lowerback 6.352784 -1.111827 -0.349053
rfingers 7.125020
lclavicle -0.000000 0.000000
upperneck 3.707705 -1.060952 -1.189796
rfemur -49.159172 -14.756166 18.063276
thorax -3.758907 -0.733392 1.149929
rclavicle -0.000000 0.000000
rtibia 86.630875
lfoot -34.752281 0.827906
lhumerus -43.238506 5.560950 78.388336
rthumb -14.629841 -43.739319
root -4.506182 17.230448 2.538646 559.174133 -4.964860 -897.567871
ltoes -22.967812
lfemur -36.212990 -6.988274 -15.331122
70
upperback 1.889069 -4.676578 0.309929
rfoot 0.110860 -11.792493
lradius 67.808281
lthumb 4.527562 61.485966
rradius 27.202213
lwrist 35.005535
rhand -40.200100 -319.581848
rhumerus -56.778973 14.536378 -54.064335
lowerneck -6.541125 2.527639 7.212481
lhand -21.876953 31.555195
ltibia 75.166924
head 4.372768 1.709825 -2.777571
rwrist -18.682001
lfingers 7.125020
rtoes -17.309671
lowerback 7.298235 -3.506567 1.409104
rfingers 7.125020
lclavicle 0.000000 0.000000
upperneck 10.299667 3.431221 -5.856208
rfemur -36.257206 8.112434 22.788696
thorax -2.213862 -2.386886 -0.039451
rclavicle 0.000000 0.000000
rtibia 59.782719
lfoot 16.037230 5.503107
lhumerus -10.252611 -59.976570 59.204502
rthumb -13.160089 10.866440
root -6.416779 19.402977 -14.590440 541.032776 -3.987769 -900.226074
ltoes 8.202031
lfemur -45.082836 3.921823 -12.632087
71
upperback 3.107615 -5.052870 -1.806548
rfoot -30.551594 -6.814721
lradius 57.300236
lthumb 12.637722 58.064930
rradius 20.890949
lwrist 34.158062
rhand -25.666880 -375.573639
rhumerus -68.520317 -1.159491 -50.297253
lowerneck -7.444926 7.972354 10.302934
lhand -13.472507 28.467325
ltibia 41.440571
head 3.460772 4.932993 -3.273395
rwrist 13.768741
lfingers 7.125020
rtoes -1.132764
lowerback 5.094377 -3.887129 -1.086146
rfingers 7.125020
lclavicle -0.000000 -0.000000
upperneck 4.570781 10.111071 -7.305725
rfemur -37.810551 17.450483 20.224119
thorax 0.280041 -2.451150 -1.005114
rclavicle -0.000000 -0.000000
rtibia 71.335556
lfoot 4.285818 11.022772
lhumerus 11.807491 -34.535259 50.164520
rthumb 0.867478 -45.551399
root -8.255959 17.466597 -23.047272 542.666016 12.474992 -902.847900
ltoes -5.200375
lfemur -46.097267 -7.435787 -2.680515
72
upperback 2.840505 -11.618000 3.522541
rfoot -9.388781 -10.397328
lradius 2.924459
lthumb 16.053217 58.788162
rradius 15.101468
lwrist -72.586937
rhand -16.795946 -359.936096
rhumerus -68.308784 -18.363949 -47.292419
lowerneck -2.001777 12.164397 11.654166
lhand -9.927724 29.433214
ltibia 19.596317
head -1.172548 8.215792 -6.300167
rwrist 21.063669
lfingers 7.125020
rtoes -4.862597
lowerback 4.062204 -8.844557 0.894817
rfingers 7.125020
lclavicle -0.000000 -0.000000
upperneck -12.557575 15.715227 -15.390001
rfemur -74.694664 17.278584 3.024300
thorax 1.251909 -5.785413 3.416764
rclavicle -0.000000 -0.000000
rtibia 57.914211
lfoot -10.597695 40.023872
lhumerus 4.411020 4.560757 74.128143
rthumb 9.432112 -29.700850
root -9.150126 18.201975 -19.974644 568.443665 11.841800 -902.177307
ltoes 30.323416
lfemur 3.597593 12.011663 -19.331095
73
upperback -2.869635 -0.582852 -0.881267
rfoot -13.868242 -29.617067
lradius 31.319313
lthumb 8.346319 51.569546
rradius 27.969034
lwrist 9.837665
rhand -47.410103 -353.618835
rhumerus -50.025570 -38.690052 4.182940
lowerneck -7.506834 0.426920 1.947191
lhand -17.921265 21.756891
ltibia 48.324497
head 8.188241 -0.226154 0.321955
rwrist -27.649530
lfingers 7.125020
rtoes -3.304168
lowerback -1.687043 -0.395558 -3.204089
rfingers 7.125020
lclavicle -0.000000 0.000000
upperneck 22.445990 -0.780208 2.277353
rfemur -2.812498 -23.497976 -0.370122
thorax -1.978831 -0.258302 0.891269
rclavicle -0.000000 0.000000
rtibia 43.391754
lfoot -19.541542 5.341682
lhumerus 33.677227 55.479378 10.608048
rthumb -20.101301 -22.596472
root -10.893598 17.819477 -16.321159 490.986908 -77.727676 -854.320312
ltoes -17.792133
lfemur -12.767155 13.067353 10.870300
74
upperback -0.305593 -0.050804 -9.432446
rfoot -26.274698 -24.170713
lradius 26.995920
lthumb 26.648636 47.663235
rradius 76.787231
lwrist 4.720238
rhand -28.904728 -353.256927
rhumerus 81.781754 -28.742418 -35.811325
lowerneck -4.777865 2.076451 2.249941
lhand 1.124887 19.706245
ltibia 36.000439
head 4.485543 0.739089 3.812547
rwrist -25.111641
lfingers 7.125020
rtoes -1.591372
lowerback 3.362991 0.776044 -6.390108
rfingers 7.125020
lclavicle 0.000000 0.000000
upperneck 12.371687 0.332334 13.529846
rfemur -40.592377 -27.593872 46.931324
thorax -2.253086 -0.257101 -6.269465
rclavicle 0.000000 0.000000
rtibia 65.760040
lfoot -9.791437 44.879333
lhumerus -17.049118 30.266071 50.041683
rthumb -2.259683 -23.222734
root -8.806338 17.299189 -20.576628 511.237640 -53.216698 -864.018921
ltoes 0.693229
lfemur -3.575655 -14.879269 31.992464
